<?xml version="1.0" encoding="iso-8859-1"?>
<!-- Generator: Adobe Illustrator 18.0.0, SVG Export Plug-In . SVG Version: 6.00 Build 0)  -->
<!DOCTYPE svg PUBLIC "-//W3C//DTD SVG 1.1//EN" "http://www.w3.org/Graphics/SVG/1.1/DTD/svg11.dtd">
<svg version="1.1" id="Capa_1" xmlns="http://www.w3.org/2000/svg" xmlns:xlink="http://www.w3.org/1999/xlink" x="0px" y="0px"
	 viewBox="0 0 462.782 462.782" style="enable-background:new 0 0 462.782 462.782;" xml:space="preserve">
<path id="XMLID_1426_" d="M377.641,210.896c-6.561,0-12.36,4.264-14.317,10.526l-15.254,48.815l-39.5-92.167l91.227-91.227v27.763
	h30V50.631c0-8.284-6.716-15-15-15H350.82v30h27.763l-83.689,83.689c-2.857-2.702-6.723-4.242-10.826-4.089
	c-6.189,0.219-11.608,4.22-13.64,10.07l-9.832,28.316l-44.542,44.542l-26.836-73.107c-2.168-5.907-7.792-9.831-14.081-9.831
	c-0.022,0-0.044,0-0.066,0c-6.315,0.028-11.936,4.008-14.06,9.955l-41.446,116.048l-20.511-50.931
	c-2.287-5.678-7.793-9.396-13.914-9.396H0v30h75.011l31.482,78.173c1.764,4.381,5.438,7.579,9.829,8.822l-78.047,78.047
	l21.213,21.213l144.582-144.582l13.239,36.065c2.169,5.91,7.795,9.831,14.081,9.831c0.044,0,0.089,0,0.133-0.001
	c6.339-0.056,11.958-4.091,14.038-10.079l40.505-116.661l50.422,117.65c2.372,5.535,7.81,9.092,13.783,9.091
	c0.255,0,0.512-0.007,0.769-0.02c6.271-0.32,11.68-4.513,13.553-10.507l24.076-77.043h74.113v-30H377.641z M139.439,304.775
	l35.892-100.498l17.347,47.258L139.439,304.775z M230.998,268.866l-3.551-9.673l10.585-10.585L230.998,268.866z"/>
<g>
</g>
<g>
</g>
<g>
</g>
<g>
</g>
<g>
</g>
<g>
</g>
<g>
</g>
<g>
</g>
<g>
</g>
<g>
</g>
<g>
</g>
<g>
</g>
<g>
</g>
<g>
</g>
<g>
</g>
</svg>
