<?xml version="1.0" encoding="iso-8859-1"?>
<!-- Generator: Adobe Illustrator 18.0.0, SVG Export Plug-In . SVG Version: 6.00 Build 0)  -->
<!DOCTYPE svg PUBLIC "-//W3C//DTD SVG 1.1//EN" "http://www.w3.org/Graphics/SVG/1.1/DTD/svg11.dtd">
<svg version="1.1" id="Capa_1" xmlns="http://www.w3.org/2000/svg" xmlns:xlink="http://www.w3.org/1999/xlink" x="0px" y="0px"
	 viewBox="0 0 461.153 461.153" style="enable-background:new 0 0 461.153 461.153;" xml:space="preserve">
<path id="XMLID_792_" d="M424.043,0H236.104c-8.284,0-15,6.716-15,15v112.135h-37.492L42.495,72.859
	c-4.612-1.774-9.802-1.162-13.877,1.635c-4.073,2.798-6.508,7.423-6.508,12.365v287.435c0,4.942,2.435,9.567,6.508,12.365
	c2.535,1.741,5.502,2.635,8.493,2.635c1.816,0,3.642-0.33,5.384-1l141.118-54.276h37.492v112.135c0,8.284,6.716,15,15,15h187.938
	c8.284,0,15-6.716,15-15V15C439.043,6.716,432.327,0,424.043,0z M52.11,108.699l113.718,43.737v156.28L52.11,352.454V108.699z
	 M195.828,304.018V157.135h80.553v146.883H195.828z M409.043,431.153H251.104v-97.135h40.276c8.284,0,15-6.716,15-15V142.135
	c0-8.284-6.716-15-15-15h-40.276V30h157.938V431.153z"/>
<g>
</g>
<g>
</g>
<g>
</g>
<g>
</g>
<g>
</g>
<g>
</g>
<g>
</g>
<g>
</g>
<g>
</g>
<g>
</g>
<g>
</g>
<g>
</g>
<g>
</g>
<g>
</g>
<g>
</g>
</svg>
