<?xml version="1.0" encoding="iso-8859-1"?>
<!-- Generator: Adobe Illustrator 18.0.0, SVG Export Plug-In . SVG Version: 6.00 Build 0)  -->
<!DOCTYPE svg PUBLIC "-//W3C//DTD SVG 1.1//EN" "http://www.w3.org/Graphics/SVG/1.1/DTD/svg11.dtd">
<svg version="1.1" id="Capa_1" xmlns="http://www.w3.org/2000/svg" xmlns:xlink="http://www.w3.org/1999/xlink" x="0px" y="0px"
	 viewBox="0 0 460 460" style="enable-background:new 0 0 460 460;" xml:space="preserve">
<g id="XMLID_26_">
	<path id="XMLID_810_" d="M258.099,24.237V0h-30v24.723C133.501,33.488,58.224,109.901,51.252,205H18.151v30h33.186
		c5.024,63.5,40.515,118.551,91.814,150.521V460h30v-59.199C195.755,409.949,220.439,415,246.284,415
		c27.275,0,53.259-5.62,76.868-15.751V460h30v-76.865c53.367-34.958,88.697-95.277,88.697-163.701
		C441.849,115.568,360.453,30.368,258.099,24.237z M323.151,366.037C300.167,378.137,274.013,385,246.284,385
		c-26.238,0-51.065-6.145-73.132-17.056V335h150V366.037z M353.151,345.781V320c0-8.284-6.716-15-15-15h-180
		c-8.284,0-15,6.716-15,15v28.855c-38.024-30.363-62.433-77.092-62.433-129.421c0-85.147,64.613-155.477,147.381-164.561V106
		h-51.815v30h140v-30h-58.185V54.296c85.799,6.08,153.75,77.818,153.75,165.138C411.849,270.029,389.029,315.387,353.151,345.781z"
		/>
	<rect id="XMLID_1326_" x="118.151" y="205" width="50" height="30"/>
	<rect id="XMLID_1327_" x="218.151" y="205" width="50" height="30"/>
</g>
<g>
</g>
<g>
</g>
<g>
</g>
<g>
</g>
<g>
</g>
<g>
</g>
<g>
</g>
<g>
</g>
<g>
</g>
<g>
</g>
<g>
</g>
<g>
</g>
<g>
</g>
<g>
</g>
<g>
</g>
</svg>
