<?xml version="1.0" encoding="iso-8859-1"?>
<!-- Generator: Adobe Illustrator 18.0.0, SVG Export Plug-In . SVG Version: 6.00 Build 0)  -->
<!DOCTYPE svg PUBLIC "-//W3C//DTD SVG 1.1//EN" "http://www.w3.org/Graphics/SVG/1.1/DTD/svg11.dtd">
<svg version="1.1" id="Capa_1" xmlns="http://www.w3.org/2000/svg" xmlns:xlink="http://www.w3.org/1999/xlink" x="0px" y="0px"
	 viewBox="0 0 460.606 460.606" style="enable-background:new 0 0 460.606 460.606;" xml:space="preserve">
<g id="XMLID_1421_">
	<path id="XMLID_1422_" d="M58.724,175.606v30h48.686c8.284,0,15-6.716,15-15V141.92h-30v12.474L26.213,88.196L5,109.409
		l66.197,66.197H58.724z"/>
	<path id="XMLID_1423_" d="M118.724,87.41v30h48.686c8.284,0,15-6.716,15-15V53.724h-30v12.474L86.213,0L65,21.213l66.197,66.197
		H118.724z"/>
	<polygon id="XMLID_1424_" points="455.606,275.606 290.606,275.606 290.606,120.606 260.606,120.606 260.606,460.606 
		290.606,460.606 290.606,305.606 455.606,305.606 	"/>
	<polygon id="XMLID_1425_" points="160.606,275.606 15.606,275.606 15.606,305.606 160.606,305.606 160.606,400.606 
		190.606,400.606 190.606,180.606 160.606,180.606 	"/>
</g>
<g>
</g>
<g>
</g>
<g>
</g>
<g>
</g>
<g>
</g>
<g>
</g>
<g>
</g>
<g>
</g>
<g>
</g>
<g>
</g>
<g>
</g>
<g>
</g>
<g>
</g>
<g>
</g>
<g>
</g>
</svg>
