<?xml version="1.0" encoding="iso-8859-1"?>
<!-- Generator: Adobe Illustrator 18.0.0, SVG Export Plug-In . SVG Version: 6.00 Build 0)  -->
<!DOCTYPE svg PUBLIC "-//W3C//DTD SVG 1.1//EN" "http://www.w3.org/Graphics/SVG/1.1/DTD/svg11.dtd">
<svg version="1.1" id="Capa_1" xmlns="http://www.w3.org/2000/svg" xmlns:xlink="http://www.w3.org/1999/xlink" x="0px" y="0px"
	 viewBox="0 0 460 460" style="enable-background:new 0 0 460 460;" xml:space="preserve">
<path id="XMLID_915_" d="M425,215v-88.794c0-5.435-2.939-10.443-7.683-13.095c-4.743-2.648-10.551-2.529-15.179,0.32
	l-157.035,96.636V101.667H245c0-8.284-6.716-15-15-15h-70v30h55v93.401L57.965,113.431c-4.63-2.849-10.435-2.97-15.179-0.32
	c-4.743,2.651-7.683,7.66-7.683,13.095V215H0v30h35.104v88.795c0,5.435,2.939,10.443,7.683,13.095
	c2.277,1.271,4.798,1.905,7.317,1.905c2.729,0,5.455-0.744,7.861-2.226L215,249.931v108.402h0.104c0,8.284,6.716,15,15,15h70v-30
	h-55v-93.402l157.035,96.637c2.407,1.481,5.133,2.226,7.861,2.226c2.519,0,5.04-0.634,7.317-1.905
	c4.743-2.651,7.683-7.66,7.683-13.095V245h35v-30H425z M395,153.049V215H294.33L395,153.049z M65.104,153.049L165.773,215H65.104
	V153.049z M65.104,306.951V245h100.67L65.104,306.951z M395,306.951L294.33,245H395V306.951z"/>
<g>
</g>
<g>
</g>
<g>
</g>
<g>
</g>
<g>
</g>
<g>
</g>
<g>
</g>
<g>
</g>
<g>
</g>
<g>
</g>
<g>
</g>
<g>
</g>
<g>
</g>
<g>
</g>
<g>
</g>
</svg>
