<?xml version="1.0" encoding="iso-8859-1"?>
<!-- Generator: Adobe Illustrator 18.0.0, SVG Export Plug-In . SVG Version: 6.00 Build 0)  -->
<!DOCTYPE svg PUBLIC "-//W3C//DTD SVG 1.1//EN" "http://www.w3.org/Graphics/SVG/1.1/DTD/svg11.dtd">
<svg version="1.1" id="Capa_1" xmlns="http://www.w3.org/2000/svg" xmlns:xlink="http://www.w3.org/1999/xlink" x="0px" y="0px"
	 viewBox="0 0 457.519 457.519" style="enable-background:new 0 0 457.519 457.519;" xml:space="preserve">
<g id="XMLID_1438_">
	<path id="XMLID_1441_" d="M71.694,148.728V31.576h-30v117.152l-20.481-20.481L0,149.46l46.088,46.087
		c2.929,2.929,6.768,4.394,10.606,4.394s7.678-1.465,10.606-4.394l46.087-46.087l-21.213-21.213L71.694,148.728z"/>
	<polygon id="XMLID_1442_" points="92.175,261.972 59.659,294.487 53.729,294.487 21.213,261.972 0,283.185 41.694,324.878 
		41.694,425.942 71.694,425.942 71.694,324.878 113.388,283.185 	"/>
	<path id="XMLID_1445_" d="M243.76,148.728V31.576h-30v117.152l-20.481-20.481l-21.213,21.213l46.088,46.087
		c2.929,2.929,6.768,4.394,10.606,4.394s7.678-1.465,10.606-4.394l46.087-46.087l-21.213-21.213L243.76,148.728z"/>
	<polygon id="XMLID_1446_" points="264.24,261.972 231.725,294.487 225.795,294.487 193.278,261.972 172.065,283.185 
		213.76,324.878 213.76,425.942 243.76,425.942 243.76,324.878 285.453,283.185 	"/>
	<path id="XMLID_1449_" d="M400.825,199.94c3.839,0,7.678-1.465,10.606-4.394l46.087-46.087l-21.213-21.213l-20.48,20.48V31.576h-30
		v117.152l-20.481-20.481l-21.213,21.213l46.088,46.087C393.147,198.476,396.986,199.94,400.825,199.94z"/>
	<polygon id="XMLID_1450_" points="436.306,261.972 403.79,294.487 397.86,294.487 365.344,261.972 344.131,283.185 
		385.825,324.878 385.825,425.942 415.825,425.942 415.825,324.878 457.519,283.185 	"/>
</g>
<g>
</g>
<g>
</g>
<g>
</g>
<g>
</g>
<g>
</g>
<g>
</g>
<g>
</g>
<g>
</g>
<g>
</g>
<g>
</g>
<g>
</g>
<g>
</g>
<g>
</g>
<g>
</g>
<g>
</g>
</svg>
