<?xml version="1.0" encoding="iso-8859-1"?>
<!-- Generator: Adobe Illustrator 18.0.0, SVG Export Plug-In . SVG Version: 6.00 Build 0)  -->
<!DOCTYPE svg PUBLIC "-//W3C//DTD SVG 1.1//EN" "http://www.w3.org/Graphics/SVG/1.1/DTD/svg11.dtd">
<svg version="1.1" id="Capa_1" xmlns="http://www.w3.org/2000/svg" xmlns:xlink="http://www.w3.org/1999/xlink" x="0px" y="0px"
	 viewBox="0 0 460 460" style="enable-background:new 0 0 460 460;" xml:space="preserve">
<path id="XMLID_845_" d="M245,53.384V0h-30v53.384C124.254,61.024,52.743,137.313,52.743,230S124.254,398.976,215,406.616V460h30
	v-53.384c90.746-7.641,162.257-83.929,162.257-176.616S335.746,61.024,245,53.384z M230,155c8.271,0,15,6.729,15,15s-6.729,15-15,15
	s-15-6.729-15-15S221.729,155,230,155z M230,305c-8.271,0-15-6.729-15-15s6.729-15,15-15s15,6.729,15,15S238.271,305,230,305z
	 M245,376.499V345h35v-30h-12.604c4.799-7.156,7.604-15.756,7.604-25c0-24.813-20.187-45-45-45s-45,20.187-45,45
	c0,9.244,2.805,17.844,7.604,25H180v30h35v31.499C140.821,368.96,82.743,306.135,82.743,230S140.821,91.04,215,83.501V115h-35v30
	h12.604c-4.799,7.156-7.604,15.756-7.604,25c0,24.813,20.187,45,45,45s45-20.187,45-45c0-9.244-2.805-17.844-7.604-25H280v-30h-35
	V83.501C319.179,91.04,377.257,153.865,377.257,230S319.179,368.96,245,376.499z"/>
<g>
</g>
<g>
</g>
<g>
</g>
<g>
</g>
<g>
</g>
<g>
</g>
<g>
</g>
<g>
</g>
<g>
</g>
<g>
</g>
<g>
</g>
<g>
</g>
<g>
</g>
<g>
</g>
<g>
</g>
</svg>
