<?xml version="1.0" encoding="iso-8859-1"?>
<!-- Generator: Adobe Illustrator 18.0.0, SVG Export Plug-In . SVG Version: 6.00 Build 0)  -->
<!DOCTYPE svg PUBLIC "-//W3C//DTD SVG 1.1//EN" "http://www.w3.org/Graphics/SVG/1.1/DTD/svg11.dtd">
<svg version="1.1" id="Capa_1" xmlns="http://www.w3.org/2000/svg" xmlns:xlink="http://www.w3.org/1999/xlink" x="0px" y="0px"
	 viewBox="0 0 460 460" style="enable-background:new 0 0 460 460;" xml:space="preserve">
<g id="XMLID_446_">
	<path id="XMLID_522_" d="M335,65.081V0h-30v49.398c-23.109-9.632-48.442-14.963-75-14.963s-51.891,5.331-75,14.963V0h-30v65.081
		C70.588,99.846,34.435,160.779,34.435,230S70.588,360.155,125,394.92V460h30v-49.398c23.109,9.632,48.442,14.963,75,14.963
		s51.891-5.331,75-14.963V460h30v-65.08c54.413-34.765,90.565-95.699,90.565-164.92S389.413,99.846,335,65.081z M155,82.421
		c22.529-11.496,48.02-17.986,75-17.986c26.98,0,52.471,6.49,75,17.986V115H155V82.421z M305,377.58
		c-22.529,11.496-48.02,17.986-75,17.986c-26.98,0-52.471-6.49-75-17.986V345h150V377.58z M335,357.916V330c0-8.284-6.716-15-15-15
		H140c-8.284,0-15,6.716-15,15v27.916C88.045,327.526,64.435,281.469,64.435,230S88.045,132.474,125,102.085V130
		c0,8.284,6.716,15,15,15h180c8.284,0,15-6.716,15-15v-27.915c36.955,30.39,60.565,76.446,60.565,127.915
		S371.956,327.526,335,357.916z"/>
	<polygon id="XMLID_1040_" points="254.749,184.038 230,208.787 205.251,184.038 184.038,205.251 208.787,230 184.038,254.749 
		205.251,275.962 230,251.213 254.749,275.962 275.962,254.749 251.213,230 275.962,205.251 	"/>
</g>
<g>
</g>
<g>
</g>
<g>
</g>
<g>
</g>
<g>
</g>
<g>
</g>
<g>
</g>
<g>
</g>
<g>
</g>
<g>
</g>
<g>
</g>
<g>
</g>
<g>
</g>
<g>
</g>
<g>
</g>
</svg>
