<?xml version="1.0" encoding="iso-8859-1"?>
<!-- Generator: Adobe Illustrator 18.0.0, SVG Export Plug-In . SVG Version: 6.00 Build 0)  -->
<!DOCTYPE svg PUBLIC "-//W3C//DTD SVG 1.1//EN" "http://www.w3.org/Graphics/SVG/1.1/DTD/svg11.dtd">
<svg version="1.1" id="Capa_1" xmlns="http://www.w3.org/2000/svg" xmlns:xlink="http://www.w3.org/1999/xlink" x="0px" y="0px"
	 viewBox="0 0 460 460" style="enable-background:new 0 0 460 460;" xml:space="preserve">
<path id="XMLID_1125_" d="M230,34.435c-26.558,0-51.891,5.331-75,14.963V0h-30v65.08C70.588,99.845,34.435,160.779,34.435,230
	S70.588,360.155,125,394.92V460h30v-49.398c23.109,9.632,48.442,14.963,75,14.963s51.891-5.331,75-14.963V460h30v-65.08
	c54.412-34.765,90.564-95.698,90.564-164.92C425.565,122.165,337.835,34.435,230,34.435z M305,377.579
	c-18.306,9.341-38.572,15.365-60,17.299v-95.642l8.819,8.82l21.213-21.213L230,241.811l-45.033,45.033l21.213,21.213l8.82-8.82
	v95.642c-21.428-1.934-41.693-7.958-60-17.299V225h150V377.579z M335,357.916V210c0-8.284-6.716-15-15-15H140
	c-8.284,0-15,6.716-15,15v147.916C88.045,327.526,64.435,281.469,64.435,230S88.045,132.474,125,102.084V130c0,8.284,6.716,15,15,15
	h119.435v-30H155V82.42c22.529-11.496,48.02-17.986,75-17.986c91.293,0,165.564,74.272,165.564,165.565
	C395.565,281.469,371.956,327.526,335,357.916z"/>
<g>
</g>
<g>
</g>
<g>
</g>
<g>
</g>
<g>
</g>
<g>
</g>
<g>
</g>
<g>
</g>
<g>
</g>
<g>
</g>
<g>
</g>
<g>
</g>
<g>
</g>
<g>
</g>
<g>
</g>
</svg>
