<?xml version="1.0" encoding="iso-8859-1"?>
<!-- Generator: Adobe Illustrator 18.0.0, SVG Export Plug-In . SVG Version: 6.00 Build 0)  -->
<!DOCTYPE svg PUBLIC "-//W3C//DTD SVG 1.1//EN" "http://www.w3.org/Graphics/SVG/1.1/DTD/svg11.dtd">
<svg version="1.1" id="Capa_1" xmlns="http://www.w3.org/2000/svg" xmlns:xlink="http://www.w3.org/1999/xlink" x="0px" y="0px"
	 viewBox="0 0 460 460" style="enable-background:new 0 0 460 460;" xml:space="preserve">
<path id="XMLID_930_" d="M349.437,215V101.667h-30V215h-30V101.667h-30v108.401l-157.035-96.638
	c-4.628-2.849-10.435-2.97-15.178-0.32c-4.744,2.651-7.683,7.66-7.683,13.095V215H0v30h79.541v88.794
	c0,5.435,2.939,10.443,7.683,13.095c2.277,1.271,4.798,1.905,7.316,1.905c2.729,0,5.455-0.744,7.862-2.226l157.035-96.637v108.401
	h30V245h30v113.333h30V245H460v-30H349.437z M109.541,306.95V153.049L234.586,230L109.541,306.95z"/>
<g>
</g>
<g>
</g>
<g>
</g>
<g>
</g>
<g>
</g>
<g>
</g>
<g>
</g>
<g>
</g>
<g>
</g>
<g>
</g>
<g>
</g>
<g>
</g>
<g>
</g>
<g>
</g>
<g>
</g>
</svg>
