<?xml version="1.0" encoding="iso-8859-1"?>
<!-- Generator: Adobe Illustrator 18.0.0, SVG Export Plug-In . SVG Version: 6.00 Build 0)  -->
<!DOCTYPE svg PUBLIC "-//W3C//DTD SVG 1.1//EN" "http://www.w3.org/Graphics/SVG/1.1/DTD/svg11.dtd">
<svg version="1.1" id="Capa_1" xmlns="http://www.w3.org/2000/svg" xmlns:xlink="http://www.w3.org/1999/xlink" x="0px" y="0px"
	 viewBox="0 0 460 460" style="enable-background:new 0 0 460 460;" xml:space="preserve">
<path id="XMLID_1107_" d="M406.616,215C398.976,124.255,322.688,52.742,230,52.742S61.024,124.255,53.384,215H0v30h53.384
	C61.024,335.746,137.312,407.258,230,407.258S398.976,335.746,406.616,245H460v-30H406.616z M230,377.258
	c-76.135,0-138.96-58.078-146.499-132.257h72.638l94.377-92.799l-21.033-21.392L143.861,215h-60.36
	C91.04,140.821,153.865,82.742,230,82.742S368.96,140.821,376.499,215H310v30h66.499C368.96,319.18,306.135,377.258,230,377.258z"/>
<g>
</g>
<g>
</g>
<g>
</g>
<g>
</g>
<g>
</g>
<g>
</g>
<g>
</g>
<g>
</g>
<g>
</g>
<g>
</g>
<g>
</g>
<g>
</g>
<g>
</g>
<g>
</g>
<g>
</g>
</svg>
