<?xml version="1.0" encoding="iso-8859-1"?>
<!-- Generator: Adobe Illustrator 18.0.0, SVG Export Plug-In . SVG Version: 6.00 Build 0)  -->
<!DOCTYPE svg PUBLIC "-//W3C//DTD SVG 1.1//EN" "http://www.w3.org/Graphics/SVG/1.1/DTD/svg11.dtd">
<svg version="1.1" id="Capa_1" xmlns="http://www.w3.org/2000/svg" xmlns:xlink="http://www.w3.org/1999/xlink" x="0px" y="0px"
	 viewBox="0 0 460 460" style="enable-background:new 0 0 460 460;" xml:space="preserve">
<g id="XMLID_455_">
	<path id="XMLID_880_" d="M332,290c8.284,0,15-6.716,15-15v-90c0-8.284-6.716-15-15-15H128c-8.284,0-15,6.716-15,15v90
		c0,8.284,6.716,15,15,15H332z M143,200h174v60H143V200z"/>
	<polygon id="XMLID_886_" points="95,365 215,365 215,460 245,460 245,365 365,365 365,335 95,335 	"/>
	<polygon id="XMLID_946_" points="245,95 245,0 215,0 215,95 95,95 95,125 365,125 365,95 	"/>
</g>
<g>
</g>
<g>
</g>
<g>
</g>
<g>
</g>
<g>
</g>
<g>
</g>
<g>
</g>
<g>
</g>
<g>
</g>
<g>
</g>
<g>
</g>
<g>
</g>
<g>
</g>
<g>
</g>
<g>
</g>
</svg>
