<?xml version="1.0" encoding="iso-8859-1"?>
<!-- Generator: Adobe Illustrator 18.0.0, SVG Export Plug-In . SVG Version: 6.00 Build 0)  -->
<!DOCTYPE svg PUBLIC "-//W3C//DTD SVG 1.1//EN" "http://www.w3.org/Graphics/SVG/1.1/DTD/svg11.dtd">
<svg version="1.1" id="Capa_1" xmlns="http://www.w3.org/2000/svg" xmlns:xlink="http://www.w3.org/1999/xlink" x="0px" y="0px"
	 viewBox="0 0 460 460" style="enable-background:new 0 0 460 460;" xml:space="preserve">
<g id="XMLID_1333_">
	<path id="XMLID_1341_" d="M406.617,215C398.976,124.254,322.688,52.742,230,52.742c-92.688,0-168.976,71.512-176.617,162.257H0v30
		h53.383C61.024,335.745,137.312,407.258,230,407.258c92.688,0,168.976-71.512,176.617-162.258H460v-30H406.617z M230,377.258
		c-81.198,0-147.258-66.06-147.258-147.258c0-81.198,66.06-147.257,147.258-147.257S377.258,148.802,377.258,230
		C377.258,311.198,311.198,377.258,230,377.258z"/>
	<rect id="XMLID_1357_" x="128" y="260.203" width="204" height="30"/>
	<rect id="XMLID_1358_" x="128" y="170.203" width="204" height="30"/>
</g>
<g>
</g>
<g>
</g>
<g>
</g>
<g>
</g>
<g>
</g>
<g>
</g>
<g>
</g>
<g>
</g>
<g>
</g>
<g>
</g>
<g>
</g>
<g>
</g>
<g>
</g>
<g>
</g>
<g>
</g>
</svg>
