<?xml version="1.0" encoding="iso-8859-1"?>
<!-- Generator: Adobe Illustrator 18.0.0, SVG Export Plug-In . SVG Version: 6.00 Build 0)  -->
<!DOCTYPE svg PUBLIC "-//W3C//DTD SVG 1.1//EN" "http://www.w3.org/Graphics/SVG/1.1/DTD/svg11.dtd">
<svg version="1.1" id="Capa_1" xmlns="http://www.w3.org/2000/svg" xmlns:xlink="http://www.w3.org/1999/xlink" x="0px" y="0px"
	 viewBox="0 0 460 460" style="enable-background:new 0 0 460 460;" xml:space="preserve">
<g id="XMLID_1026_">
	<polygon id="XMLID_1042_" points="245,120 215,120 215,155 180,155 180,185 215,185 215,220 245,220 245,185 280,185 280,155 
		245,155 	"/>
	<path id="XMLID_1220_" d="M407.258,230c0-92.688-71.512-168.976-162.258-176.617V0h-30v53.383
		C124.254,61.024,52.742,137.313,52.742,230c0,92.944,71.907,169.403,163.01,176.684V460h30v-53.45
		C336.14,398.551,407.258,322.431,407.258,230z M230,377.258c-81.198,0-147.257-66.06-147.257-147.258S148.802,82.742,230,82.742
		S377.258,148.802,377.258,230S311.198,377.258,230,377.258z"/>
	<rect id="XMLID_1440_" x="180" y="275" width="100" height="30"/>
</g>
<g>
</g>
<g>
</g>
<g>
</g>
<g>
</g>
<g>
</g>
<g>
</g>
<g>
</g>
<g>
</g>
<g>
</g>
<g>
</g>
<g>
</g>
<g>
</g>
<g>
</g>
<g>
</g>
<g>
</g>
</svg>
