<?xml version="1.0" encoding="iso-8859-1"?>
<!-- Generator: Adobe Illustrator 18.0.0, SVG Export Plug-In . SVG Version: 6.00 Build 0)  -->
<!DOCTYPE svg PUBLIC "-//W3C//DTD SVG 1.1//EN" "http://www.w3.org/Graphics/SVG/1.1/DTD/svg11.dtd">
<svg version="1.1" id="Capa_1" xmlns="http://www.w3.org/2000/svg" xmlns:xlink="http://www.w3.org/1999/xlink" x="0px" y="0px"
	 viewBox="0 0 460 460" style="enable-background:new 0 0 460 460;" xml:space="preserve">
<g id="XMLID_462_">
	<path id="XMLID_889_" d="M236.904,210.483l-130.413-80.254c-4.63-2.849-10.435-2.969-15.179-0.32
		c-4.743,2.651-7.683,7.66-7.683,13.095V215H0v30h83.63v71.997c0,5.435,2.939,10.443,7.683,13.095
		c2.277,1.271,4.798,1.905,7.317,1.905c2.729,0,5.455-0.744,7.861-2.226l130.413-80.254v121.039h30V89.444h-30V210.483z
		 M113.63,169.847L187.004,215H113.63V169.847z M113.63,290.153V245h73.374L113.63,290.153z"/>
	<polygon id="XMLID_891_" points="332.619,215 332.619,89.444 302.619,89.444 302.619,370.556 332.619,370.556 332.619,245 460,245 
		460,215 	"/>
</g>
<g>
</g>
<g>
</g>
<g>
</g>
<g>
</g>
<g>
</g>
<g>
</g>
<g>
</g>
<g>
</g>
<g>
</g>
<g>
</g>
<g>
</g>
<g>
</g>
<g>
</g>
<g>
</g>
<g>
</g>
</svg>
