<?xml version="1.0" encoding="iso-8859-1"?>
<!-- Generator: Adobe Illustrator 18.0.0, SVG Export Plug-In . SVG Version: 6.00 Build 0)  -->
<!DOCTYPE svg PUBLIC "-//W3C//DTD SVG 1.1//EN" "http://www.w3.org/Graphics/SVG/1.1/DTD/svg11.dtd">
<svg version="1.1" id="Capa_1" xmlns="http://www.w3.org/2000/svg" xmlns:xlink="http://www.w3.org/1999/xlink" x="0px" y="0px"
	 viewBox="0 0 460 460" style="enable-background:new 0 0 460 460;" xml:space="preserve">
<g id="XMLID_503_">
	<path id="XMLID_309_" d="M224.556,460h-30v-51.4c0-7.646,5.751-14.068,13.351-14.909c15.699-1.736,27.538-14.979,27.538-30.802
		c0-13.852-9.31-26.126-22.639-29.849c-6.482-1.811-10.965-7.717-10.965-14.447s4.483-12.637,10.965-14.447
		c13.33-3.723,22.639-15.997,22.639-29.85c0-13.852-9.31-26.126-22.639-29.849c-6.482-1.811-10.965-7.717-10.965-14.447
		s4.483-12.637,10.965-14.447c13.33-3.723,22.639-15.997,22.639-29.849c0-13.853-9.31-26.127-22.639-29.85
		c-6.482-1.811-10.965-7.717-10.965-14.447s4.483-12.637,10.965-14.447c13.33-3.723,22.639-15.997,22.639-29.849
		c0-15.823-11.839-29.065-27.538-30.802c-7.6-0.841-13.351-7.263-13.351-14.909V0h30v39.5c24.043,8.346,40.889,31.145,40.889,57.611
		c0,17.124-7.232,33.023-19.117,44.296c11.885,11.272,19.117,27.172,19.117,44.297c0,17.124-7.232,33.023-19.117,44.296
		c11.885,11.272,19.117,27.172,19.117,44.296c0,17.125-7.232,33.024-19.117,44.297c11.885,11.272,19.117,27.172,19.117,44.296
		c0,26.467-16.846,49.266-40.889,57.611V460z"/>
</g>
<g>
</g>
<g>
</g>
<g>
</g>
<g>
</g>
<g>
</g>
<g>
</g>
<g>
</g>
<g>
</g>
<g>
</g>
<g>
</g>
<g>
</g>
<g>
</g>
<g>
</g>
<g>
</g>
<g>
</g>
</svg>
