<?xml version="1.0" encoding="iso-8859-1"?>
<!-- Generator: Adobe Illustrator 18.0.0, SVG Export Plug-In . SVG Version: 6.00 Build 0)  -->
<!DOCTYPE svg PUBLIC "-//W3C//DTD SVG 1.1//EN" "http://www.w3.org/Graphics/SVG/1.1/DTD/svg11.dtd">
<svg version="1.1" id="Capa_1" xmlns="http://www.w3.org/2000/svg" xmlns:xlink="http://www.w3.org/1999/xlink" x="0px" y="0px"
	 viewBox="0 0 440 440" style="enable-background:new 0 0 440 440;" xml:space="preserve">
<g id="XMLID_2_">
	<path id="XMLID_1166_" d="M390.334,205c-7.621-86.85-80.74-155.203-169.535-155.203S58.886,118.15,51.265,205H0v30h51.265
		c7.621,86.85,80.739,155.203,169.534,155.203S382.713,321.85,390.334,235H440v-30H390.334z M220.799,360.203
		c-77.308,0-140.203-62.895-140.203-140.203S143.491,79.797,220.799,79.797S361.002,142.692,361.002,220
		S298.107,360.203,220.799,360.203z"/>
	<path id="XMLID_1169_" d="M206.844,124.476L141.639,295.31h34.167l15.64-42.588h59.671l15.88,42.588h34.167l-64.965-170.834
		H206.844z M196.979,229.383l24.542-67.131l23.58,67.131H196.979z"/>
</g>
<g>
</g>
<g>
</g>
<g>
</g>
<g>
</g>
<g>
</g>
<g>
</g>
<g>
</g>
<g>
</g>
<g>
</g>
<g>
</g>
<g>
</g>
<g>
</g>
<g>
</g>
<g>
</g>
<g>
</g>
</svg>
