<?xml version="1.0" encoding="iso-8859-1"?>
<!-- Generator: Adobe Illustrator 18.0.0, SVG Export Plug-In . SVG Version: 6.00 Build 0)  -->
<!DOCTYPE svg PUBLIC "-//W3C//DTD SVG 1.1//EN" "http://www.w3.org/Graphics/SVG/1.1/DTD/svg11.dtd">
<svg version="1.1" id="Capa_1" xmlns="http://www.w3.org/2000/svg" xmlns:xlink="http://www.w3.org/1999/xlink" x="0px" y="0px"
	 viewBox="0 0 455.664 455.664" style="enable-background:new 0 0 455.664 455.664;" xml:space="preserve">
<g id="XMLID_1492_">
	<path id="XMLID_1495_" d="M388.933,66.73C345.901,23.698,288.688,0,227.832,0C166.976,0,109.762,23.698,66.731,66.73
		S0,166.976,0,227.832s23.699,118.069,66.73,161.102s100.245,66.73,161.101,66.73c60.856,0,118.069-23.698,161.102-66.73
		s66.73-100.245,66.73-161.102S431.966,109.763,388.933,66.73z M227.832,425.664C118.747,425.664,30,336.917,30,227.832
		S118.747,30,227.832,30s197.832,88.747,197.832,197.832S336.917,425.664,227.832,425.664z"/>
	<path id="XMLID_1498_" d="M227.832,158.808c-38.06,0-69.024,30.964-69.024,69.024s30.964,69.024,69.024,69.024
		c38.061,0,69.024-30.964,69.024-69.024S265.892,158.808,227.832,158.808z M227.832,266.856c-21.518,0-39.024-17.506-39.024-39.024
		s17.506-39.024,39.024-39.024c21.519,0,39.024,17.506,39.024,39.024S249.35,266.856,227.832,266.856z"/>
</g>
<g>
</g>
<g>
</g>
<g>
</g>
<g>
</g>
<g>
</g>
<g>
</g>
<g>
</g>
<g>
</g>
<g>
</g>
<g>
</g>
<g>
</g>
<g>
</g>
<g>
</g>
<g>
</g>
<g>
</g>
</svg>
