<?xml version="1.0" encoding="iso-8859-1"?>
<!-- Generator: Adobe Illustrator 18.0.0, SVG Export Plug-In . SVG Version: 6.00 Build 0)  -->
<!DOCTYPE svg PUBLIC "-//W3C//DTD SVG 1.1//EN" "http://www.w3.org/Graphics/SVG/1.1/DTD/svg11.dtd">
<svg version="1.1" id="Capa_1" xmlns="http://www.w3.org/2000/svg" xmlns:xlink="http://www.w3.org/1999/xlink" x="0px" y="0px"
	 viewBox="0 0 460 460" style="enable-background:new 0 0 460 460;" xml:space="preserve">
<g id="XMLID_197_">
	<path id="XMLID_1122_" d="M406.617,215C398.976,124.254,322.688,52.743,230,52.743S61.024,124.254,53.384,215H0v30h53.384
		C61.024,335.746,137.312,407.257,230,407.257S398.976,335.746,406.617,245H460v-30H406.617z M230,377.257
		c-81.198,0-147.257-66.059-147.257-147.257S148.802,82.743,230,82.743S377.258,148.802,377.258,230S311.198,377.257,230,377.257z"
		/>
	<polygon id="XMLID_1303_" points="229.875,241.677 177.05,140.052 139.821,140.052 139.821,318.651 174.534,318.651 
		174.534,200.423 220.567,288.465 239.434,288.465 285.467,200.423 285.467,318.651 320.181,318.651 320.181,140.052 
		283.203,140.052 	"/>
</g>
<g>
</g>
<g>
</g>
<g>
</g>
<g>
</g>
<g>
</g>
<g>
</g>
<g>
</g>
<g>
</g>
<g>
</g>
<g>
</g>
<g>
</g>
<g>
</g>
<g>
</g>
<g>
</g>
<g>
</g>
</svg>
