<?xml version="1.0" encoding="iso-8859-1"?>
<!-- Generator: Adobe Illustrator 18.0.0, SVG Export Plug-In . SVG Version: 6.00 Build 0)  -->
<!DOCTYPE svg PUBLIC "-//W3C//DTD SVG 1.1//EN" "http://www.w3.org/Graphics/SVG/1.1/DTD/svg11.dtd">
<svg version="1.1" id="Capa_1" xmlns="http://www.w3.org/2000/svg" xmlns:xlink="http://www.w3.org/1999/xlink" x="0px" y="0px"
	 viewBox="0 0 460 460" style="enable-background:new 0 0 460 460;" xml:space="preserve">
<path id="XMLID_883_" d="M382.677,215c-6.373-20.048-25.161-34.615-47.292-34.615c-14.19,0-26.999,5.998-36.05,15.58
	C285.164,154.722,245.99,125,200,125H90c-8.284,0-15,6.716-15,15v30H0v30h75v60H0v30h75v30c0,8.284,6.716,15,15,15h110
	c45.99,0,85.164-29.722,99.334-70.964c9.052,9.582,21.86,15.58,36.05,15.58c22.131,0,40.919-14.568,47.292-34.615H460v-30H382.677z
	 M200,305h-95V155h95c41.355,0,75,33.645,75,75S241.355,305,200,305z M335.385,249.615c-10.815,0-19.615-8.799-19.615-19.615
	s8.8-19.615,19.615-19.615S355,219.184,355,230S346.2,249.615,335.385,249.615z"/>
<g>
</g>
<g>
</g>
<g>
</g>
<g>
</g>
<g>
</g>
<g>
</g>
<g>
</g>
<g>
</g>
<g>
</g>
<g>
</g>
<g>
</g>
<g>
</g>
<g>
</g>
<g>
</g>
<g>
</g>
</svg>
