<?xml version="1.0" encoding="iso-8859-1"?>
<!-- Generator: Adobe Illustrator 18.0.0, SVG Export Plug-In . SVG Version: 6.00 Build 0)  -->
<!DOCTYPE svg PUBLIC "-//W3C//DTD SVG 1.1//EN" "http://www.w3.org/Graphics/SVG/1.1/DTD/svg11.dtd">
<svg version="1.1" id="Capa_1" xmlns="http://www.w3.org/2000/svg" xmlns:xlink="http://www.w3.org/1999/xlink" x="0px" y="0px"
	 viewBox="0 0 460 460" style="enable-background:new 0 0 460 460;" xml:space="preserve">
<path id="XMLID_1507_" d="M460,216.138h-57.7C395.215,127.282,320.647,57.143,230,57.143S64.785,127.282,57.7,216.138H0v30h57.903
	C66.068,333.913,140.129,402.857,230,402.857s163.932-68.944,172.097-156.719H460V216.138z M230,87.143
	c74.095,0,135.189,56.704,142.182,128.995h-37.666c-12.452,0-24.158-4.849-32.962-13.653l-37.448-37.448
	c-18.806-18.807-49.407-18.807-68.213,0l-37.449,37.448c-8.804,8.805-20.51,13.653-32.961,13.653H87.818
	C94.811,143.847,155.905,87.143,230,87.143z M230,372.857c-73.315,0-133.898-55.518-141.94-126.719h37.423
	c20.465,0,39.705-7.97,54.175-22.44l37.448-37.448c7.109-7.109,18.678-7.109,25.787,0l37.448,37.448
	c14.471,14.471,33.71,22.44,54.175,22.44h37.423C363.898,317.339,303.315,372.857,230,372.857z"/>
<g>
</g>
<g>
</g>
<g>
</g>
<g>
</g>
<g>
</g>
<g>
</g>
<g>
</g>
<g>
</g>
<g>
</g>
<g>
</g>
<g>
</g>
<g>
</g>
<g>
</g>
<g>
</g>
<g>
</g>
</svg>
