<?xml version="1.0" encoding="iso-8859-1"?>
<!-- Generator: Adobe Illustrator 18.0.0, SVG Export Plug-In . SVG Version: 6.00 Build 0)  -->
<!DOCTYPE svg PUBLIC "-//W3C//DTD SVG 1.1//EN" "http://www.w3.org/Graphics/SVG/1.1/DTD/svg11.dtd">
<svg version="1.1" id="Capa_1" xmlns="http://www.w3.org/2000/svg" xmlns:xlink="http://www.w3.org/1999/xlink" x="0px" y="0px"
	 viewBox="0 0 461.552 461.552" style="enable-background:new 0 0 461.552 461.552;" xml:space="preserve">
<g id="XMLID_871_">
	<path id="XMLID_1090_" d="M408.168,268.579c-7.641-90.746-83.929-162.257-176.616-162.257S62.576,177.833,54.935,268.579H1.552v30
		h53.383c7.641,90.746,83.929,162.258,176.617,162.258s168.976-71.512,176.616-162.258h53.384v-30H408.168z M231.552,430.837
		c-81.198,0-147.258-66.06-147.258-147.258c0-81.198,66.06-147.257,147.258-147.257s147.257,66.06,147.257,147.257
		C378.809,364.777,312.75,430.837,231.552,430.837z"/>
	<path id="XMLID_1094_" d="M129.552,223.782c-8.284,0-15,6.716-15,15v90c0,8.284,6.716,15,15,15h204c8.284,0,15-6.716,15-15v-90
		c0-8.284-6.716-15-15-15H129.552z M318.552,313.782h-174v-60h174V313.782z"/>
	<path id="XMLID_1300_" d="M53.724,88.125v30h48.686c8.284,0,15-6.716,15-15V54.439h-30v12.473L21.213,0.715L0,21.928l66.197,66.197
		H53.724z"/>
	<path id="XMLID_1301_" d="M358.803,118.125h48.686v-30h-12.473l66.197-66.197L440,0.715l-66.197,66.197V54.439h-30v48.686
		C343.803,111.409,350.519,118.125,358.803,118.125z"/>
</g>
<g>
</g>
<g>
</g>
<g>
</g>
<g>
</g>
<g>
</g>
<g>
</g>
<g>
</g>
<g>
</g>
<g>
</g>
<g>
</g>
<g>
</g>
<g>
</g>
<g>
</g>
<g>
</g>
<g>
</g>
</svg>
