<?xml version="1.0" encoding="iso-8859-1"?>
<!-- Generator: Adobe Illustrator 18.0.0, SVG Export Plug-In . SVG Version: 6.00 Build 0)  -->
<!DOCTYPE svg PUBLIC "-//W3C//DTD SVG 1.1//EN" "http://www.w3.org/Graphics/SVG/1.1/DTD/svg11.dtd">
<svg version="1.1" id="Capa_1" xmlns="http://www.w3.org/2000/svg" xmlns:xlink="http://www.w3.org/1999/xlink" x="0px" y="0px"
	 viewBox="0 0 460 460" style="enable-background:new 0 0 460 460;" xml:space="preserve">
<path id="XMLID_1135_" d="M406.616,215C398.975,124.254,322.687,52.742,230,52.742c-92.688,0-168.976,71.512-176.617,162.258H0v30
	h53.383C61.024,335.746,137.313,407.258,230,407.258c92.687,0,168.975-71.512,176.616-162.258H460v-30H406.616z M82.742,230
	c0-76.135,58.078-138.96,132.258-146.499v292.998C140.821,368.96,82.742,306.135,82.742,230z M245,376.499V83.501
	C319.178,91.04,377.257,153.865,377.257,230S319.178,368.96,245,376.499z"/>
<g>
</g>
<g>
</g>
<g>
</g>
<g>
</g>
<g>
</g>
<g>
</g>
<g>
</g>
<g>
</g>
<g>
</g>
<g>
</g>
<g>
</g>
<g>
</g>
<g>
</g>
<g>
</g>
<g>
</g>
</svg>
