<?xml version="1.0" encoding="iso-8859-1"?>
<!-- Generator: Adobe Illustrator 18.0.0, SVG Export Plug-In . SVG Version: 6.00 Build 0)  -->
<!DOCTYPE svg PUBLIC "-//W3C//DTD SVG 1.1//EN" "http://www.w3.org/Graphics/SVG/1.1/DTD/svg11.dtd">
<svg version="1.1" id="Capa_1" xmlns="http://www.w3.org/2000/svg" xmlns:xlink="http://www.w3.org/1999/xlink" x="0px" y="0px"
	 viewBox="0 0 460 460" style="enable-background:new 0 0 460 460;" xml:space="preserve">
<g id="XMLID_907_">
	<path id="XMLID_1317_" d="M406.617,215C398.976,124.254,322.688,52.742,230,52.742S61.024,124.254,53.384,215H0v30h53.384
		C61.024,335.745,137.312,407.258,230,407.258S398.976,335.745,406.617,245H460v-30H406.617z M230,377.258
		c-81.198,0-147.257-66.06-147.257-147.258c0-81.198,66.059-147.257,147.257-147.257S377.258,148.802,377.258,230
		C377.258,311.198,311.198,377.258,230,377.258z"/>
	<path id="XMLID_1318_" d="M290.313,250.786c-11.765,0-22.825-4.581-31.144-12.9l-33.173-33.173
		c-28.87-28.87-75.844-28.869-104.713,0l-21.89,21.89l21.213,21.213l21.89-21.89c17.172-17.172,45.114-17.172,62.287,0
		l33.173,33.173c13.984,13.985,32.578,21.687,52.356,21.687c19.777,0,38.371-7.702,52.356-21.687l21.89-21.89l-21.213-21.213
		l-21.89,21.889C313.137,246.205,302.076,250.786,290.313,250.786z"/>
</g>
<g>
</g>
<g>
</g>
<g>
</g>
<g>
</g>
<g>
</g>
<g>
</g>
<g>
</g>
<g>
</g>
<g>
</g>
<g>
</g>
<g>
</g>
<g>
</g>
<g>
</g>
<g>
</g>
<g>
</g>
</svg>
