<?xml version="1.0" encoding="iso-8859-1"?>
<!-- Generator: Adobe Illustrator 18.0.0, SVG Export Plug-In . SVG Version: 6.00 Build 0)  -->
<!DOCTYPE svg PUBLIC "-//W3C//DTD SVG 1.1//EN" "http://www.w3.org/Graphics/SVG/1.1/DTD/svg11.dtd">
<svg version="1.1" id="Capa_1" xmlns="http://www.w3.org/2000/svg" xmlns:xlink="http://www.w3.org/1999/xlink" x="0px" y="0px"
	 viewBox="0 0 460 460" style="enable-background:new 0 0 460 460;" xml:space="preserve">
<g id="XMLID_1264_">
	<path id="XMLID_1267_" d="M241.317,155.833l-74.269,74.269c-8.556-12.879-23.188-21.389-39.776-21.389
		c-21.077,0-38.994,13.739-45.298,32.727H0v30h81.974c6.304,18.988,24.222,32.727,45.298,32.727c23.24,0,42.643-16.7,46.865-38.728
		l88.393-88.393L241.317,155.833z M127.272,274.167c-9.774,0-17.727-7.952-17.727-17.727s7.952-17.727,17.727-17.727
		c9.775,0,17.728,7.952,17.728,17.727S137.048,274.167,127.272,274.167z"/>
	<path id="XMLID_1270_" d="M460,241.44h-81.974c-6.304-18.988-24.222-32.727-45.298-32.727c-26.317,0-47.728,21.41-47.728,47.727
		s21.41,47.727,47.728,47.727c21.077,0,38.994-13.739,45.298-32.727H460V241.44z M332.728,274.167
		c-9.775,0-17.728-7.952-17.728-17.727s7.952-17.727,17.728-17.727c9.774,0,17.727,7.952,17.727,17.727
		S342.502,274.167,332.728,274.167z"/>
</g>
<g>
</g>
<g>
</g>
<g>
</g>
<g>
</g>
<g>
</g>
<g>
</g>
<g>
</g>
<g>
</g>
<g>
</g>
<g>
</g>
<g>
</g>
<g>
</g>
<g>
</g>
<g>
</g>
<g>
</g>
</svg>
