<?xml version="1.0" encoding="iso-8859-1"?>
<!-- Generator: Adobe Illustrator 18.0.0, SVG Export Plug-In . SVG Version: 6.00 Build 0)  -->
<!DOCTYPE svg PUBLIC "-//W3C//DTD SVG 1.1//EN" "http://www.w3.org/Graphics/SVG/1.1/DTD/svg11.dtd">
<svg version="1.1" id="Capa_1" xmlns="http://www.w3.org/2000/svg" xmlns:xlink="http://www.w3.org/1999/xlink" x="0px" y="0px"
	 viewBox="0 0 460 460" style="enable-background:new 0 0 460 460;" xml:space="preserve">
<g id="XMLID_1212_">
	<path id="XMLID_1444_" d="M155.444,97.111c0-26.467-16.846-49.266-40.889-57.611V0h-30v51.4c0,7.646,5.751,14.068,13.351,14.909
		c15.699,1.736,27.538,14.979,27.538,30.802c0,13.852-9.31,26.126-22.639,29.849c-6.482,1.811-10.965,7.717-10.965,14.447
		s4.483,12.637,10.965,14.447c13.33,3.723,22.639,15.997,22.639,29.85c0,13.852-9.31,26.126-22.639,29.849
		C96.323,217.363,91.84,223.27,91.84,230s4.483,12.637,10.965,14.447c13.33,3.723,22.639,15.997,22.639,29.849
		c0,13.853-9.31,26.127-22.639,29.85c-6.482,1.811-10.965,7.717-10.965,14.447s4.483,12.637,10.965,14.447
		c13.33,3.723,22.639,15.997,22.639,29.849c0,15.823-11.839,29.065-27.538,30.802c-7.6,0.841-13.351,7.263-13.351,14.909V460h30
		v-39.5c24.043-8.346,40.889-31.145,40.889-57.611c0-17.124-7.232-33.023-19.117-44.296c11.885-11.272,19.117-27.172,19.117-44.297
		c0-17.124-7.232-33.023-19.117-44.296c11.885-11.272,19.117-27.172,19.117-44.296c0-17.125-7.232-33.024-19.117-44.297
		C148.212,130.135,155.444,114.235,155.444,97.111z"/>
	<path id="XMLID_1448_" d="M362.094,66.31c7.6-0.841,13.351-7.263,13.351-14.909V0h-30v39.5
		c-24.043,8.346-40.89,31.145-40.89,57.611c0,17.124,7.232,33.023,19.117,44.296c-11.885,11.272-19.117,27.172-19.117,44.297
		c0,17.124,7.232,33.023,19.117,44.296c-11.885,11.272-19.117,27.172-19.117,44.296c0,17.125,7.232,33.024,19.117,44.297
		c-11.885,11.272-19.117,27.172-19.117,44.296c0,26.467,16.847,49.266,40.89,57.611V460h30v-51.4
		c0-7.646-5.751-14.068-13.351-14.909c-15.7-1.736-27.539-14.979-27.539-30.802c0-13.852,9.31-26.126,22.64-29.849
		c6.482-1.811,10.965-7.717,10.965-14.447s-4.482-12.637-10.965-14.447c-13.33-3.723-22.64-15.997-22.64-29.85
		c0-13.852,9.31-26.126,22.64-29.849c6.482-1.811,10.965-7.717,10.965-14.447s-4.482-12.637-10.965-14.447
		c-13.33-3.723-22.64-15.997-22.64-29.849c0-13.853,9.31-26.127,22.64-29.85c6.482-1.811,10.965-7.717,10.965-14.447
		s-4.482-12.637-10.965-14.447c-13.33-3.723-22.64-15.997-22.64-29.849C334.555,81.288,346.394,68.046,362.094,66.31z"/>
	<rect id="XMLID_1451_" x="215" width="30" height="460"/>
</g>
<g>
</g>
<g>
</g>
<g>
</g>
<g>
</g>
<g>
</g>
<g>
</g>
<g>
</g>
<g>
</g>
<g>
</g>
<g>
</g>
<g>
</g>
<g>
</g>
<g>
</g>
<g>
</g>
<g>
</g>
</svg>
