<?xml version="1.0" encoding="iso-8859-1"?>
<!-- Generator: Adobe Illustrator 18.0.0, SVG Export Plug-In . SVG Version: 6.00 Build 0)  -->
<!DOCTYPE svg PUBLIC "-//W3C//DTD SVG 1.1//EN" "http://www.w3.org/Graphics/SVG/1.1/DTD/svg11.dtd">
<svg version="1.1" id="Capa_1" xmlns="http://www.w3.org/2000/svg" xmlns:xlink="http://www.w3.org/1999/xlink" x="0px" y="0px"
	 viewBox="0 0 440 440" style="enable-background:new 0 0 440 440;" xml:space="preserve">
<g id="XMLID_1226_">
	<path id="XMLID_1229_" d="M389.535,205C381.914,118.15,308.795,49.797,220,49.797S58.086,118.15,50.465,205H0v30h50.465
		C58.086,321.85,131.205,390.203,220,390.203S381.914,321.85,389.535,235H440v-30H389.535z M220,360.203
		c-77.309,0-140.203-62.895-140.203-140.203S142.691,79.797,220,79.797S360.203,142.692,360.203,220S297.309,360.203,220,360.203z"
		/>
	<polygon id="XMLID_1232_" points="220.481,273.171 174.284,143.963 139.396,143.963 206.526,314.797 234.437,314.797 
		301.086,143.963 266.197,143.963 	"/>
</g>
<g>
</g>
<g>
</g>
<g>
</g>
<g>
</g>
<g>
</g>
<g>
</g>
<g>
</g>
<g>
</g>
<g>
</g>
<g>
</g>
<g>
</g>
<g>
</g>
<g>
</g>
<g>
</g>
<g>
</g>
</svg>
