<?xml version="1.0" encoding="iso-8859-1"?>
<!-- Generator: Adobe Illustrator 18.0.0, SVG Export Plug-In . SVG Version: 6.00 Build 0)  -->
<!DOCTYPE svg PUBLIC "-//W3C//DTD SVG 1.1//EN" "http://www.w3.org/Graphics/SVG/1.1/DTD/svg11.dtd">
<svg version="1.1" id="Capa_1" xmlns="http://www.w3.org/2000/svg" xmlns:xlink="http://www.w3.org/1999/xlink" x="0px" y="0px"
	 viewBox="0 0 457.183 457.183" style="enable-background:new 0 0 457.183 457.183;" xml:space="preserve">
<path id="XMLID_441_" d="M323.591,334.909c-28.537,0-52.564,19.655-59.269,46.137H146.098v-35.454h31.356c8.284,0,15-6.716,15-15
	v-204c0-8.284-6.716-15-15-15h-31.356V76.137h118.224c6.705,26.482,30.732,46.137,59.269,46.137
	c33.711,0,61.137-27.426,61.137-61.137S357.302,0,323.591,0c-28.537,0-52.564,19.655-59.269,46.137H131.098c-8.284,0-15,6.716-15,15
	v50.455H87.455c-8.284,0-15,6.716-15,15v204c0,8.284,6.716,15,15,15h28.644v50.454c0,8.284,6.716,15,15,15h133.224
	c6.705,26.482,30.732,46.137,59.269,46.137c33.711,0,61.137-27.426,61.137-61.137S357.302,334.909,323.591,334.909z M323.591,30
	c17.169,0,31.137,13.968,31.137,31.137s-13.968,31.137-31.137,31.137s-31.137-13.968-31.137-31.137S306.422,30,323.591,30z
	 M102.455,315.592v-174h60v174H102.455z M323.591,427.183c-17.169,0-31.137-13.968-31.137-31.137s13.968-31.137,31.137-31.137
	s31.137,13.968,31.137,31.137S340.76,427.183,323.591,427.183z"/>
<g>
</g>
<g>
</g>
<g>
</g>
<g>
</g>
<g>
</g>
<g>
</g>
<g>
</g>
<g>
</g>
<g>
</g>
<g>
</g>
<g>
</g>
<g>
</g>
<g>
</g>
<g>
</g>
<g>
</g>
</svg>
